Coordinates
version=1
nRows=16
nColumns=63
inDegrees=yes

Units are S.I. units (second, meters, Newtons, ...)
If the header above contains a line with 'inDegrees', this indicates whether rotational values are in degrees (yes) or radians (no).

endheader
time	pelvis_tilt	pelvis_list	pelvis_rotation	pelvis_tx	pelvis_ty	pelvis_tz	hip_flexion_r	hip_adduction_r	hip_rotation_r	knee_angle_r	knee_angle_r_beta	ankle_angle_r	subtalar_angle_r	mtp_angle_r	hip_flexion_l	hip_adduction_l	hip_rotation_l	knee_angle_l	knee_angle_l_beta	ankle_angle_l	subtalar_angle_l	mtp_angle_l	L5_S1_Flex_Ext	L5_S1_Lat_Bending	L5_S1_axial_rotation	L4_L5_Flex_Ext	L4_L5_Lat_Bending	L4_L5_axial_rotation	L3_L4_Flex_Ext	L3_L4_Lat_Bending	L3_L4_axial_rotation	L2_L3_Flex_Ext	L2_L3_Lat_Bending	L2_L3_axial_rotation	L1_L2_Flex_Ext	L1_L2_Lat_Bending	L1_L2_axial_rotation	L1_T12_Flex_Ext	L1_T12_Lat_Bending	L1_T12_axial_rotation	Abs_r3	Abs_r2	Abs_r1	Abs_t1	Abs_t2	neck_flexion	neck_bending	neck_rotation	arm_flex_r	arm_add_r	arm_rot_r	elbow_flex_r	pro_sup_r	wrist_flex_r	wrist_dev_r	arm_flex_l	arm_add_l	arm_rot_l	elbow_flex_l	pro_sup_l	wrist_flex_l	wrist_dev_l
2.542373	-4.155757	2.046069	80.692679	0.305748	0.989173	0.230606	-2.567150	-4.451518	-9.517887	9.500559	0.165816	13.867245	17.472350	0.000000	-3.699003	3.972253	-12.949543	7.969058	0.139086	10.901819	-8.910222	0.000000	0.092774	-0.485072	-1.390053	0.172291	-0.645145	-1.476931	0.152419	-1.179403	-1.476931	0.106032	-1.179403	-1.216296	0.086150	-0.989158	-1.129418	0.053011	-0.751376	-1.042539	0.662677	-5.487228	-7.731055	0.000000	0.000000	20.222928	-5.471396	-11.727925	-5.376098	-15.147277	31.794299	89.202545	78.063597	-5.597237	7.527925	5.737372	-17.583346	45.924335	89.341923	89.811974	9.749346	18.547098
2.559322	-4.138065	2.112091	80.878359	0.305964	0.989158	0.230154	-2.810185	-4.382589	-9.560210	9.293452	0.162201	13.870804	17.452449	0.000000	-3.792579	3.925191	-12.992401	7.957643	0.138887	11.007396	-8.656354	0.000000	0.100089	-0.501019	-1.416314	0.185876	-0.666356	-1.504833	0.164437	-1.218178	-1.504833	0.114392	-1.218178	-1.239275	0.092943	-1.021679	-1.150755	0.057191	-0.776079	-1.062235	0.714928	-5.667631	-7.877113	0.000000	0.000000	19.885788	-5.404511	-11.511900	-5.361973	-15.051861	31.958754	89.002793	77.726935	-5.871836	7.461362	5.787917	-17.599262	46.367462	89.299342	90.391599	10.375750	19.099674
2.576271	-4.129038	2.148694	81.122192	0.305986	0.989043	0.229804	-3.016363	-4.328692	-9.694573	9.114719	0.159082	13.869548	17.424580	0.000000	-3.846386	3.886580	-12.918711	7.949983	0.138753	11.080468	-8.475928	0.000000	0.108879	-0.516977	-1.430790	0.202199	-0.687580	-1.520214	0.178877	-1.256979	-1.520214	0.124438	-1.256979	-1.251941	0.101105	-1.054220	-1.162517	0.062214	-0.800798	-1.073092	0.777713	-5.848151	-7.957622	0.000000	0.000000	19.654859	-5.206832	-11.200566	-5.329756	-15.070149	32.214611	88.782061	77.852812	-5.563576	7.378888	5.823237	-17.610501	46.769448	89.237805	90.561269	11.197544	19.779717
2.593220	-4.131266	2.150315	81.427207	0.305815	0.988833	0.229592	-3.172278	-4.290611	-9.931091	8.970539	0.156565	13.874627	17.393559	0.000000	-3.846254	3.857916	-12.706624	7.952269	0.138793	11.121865	-8.385551	0.000000	0.118503	-0.533222	-1.432571	0.220072	-0.709185	-1.522107	0.194688	-1.296476	-1.522107	0.135437	-1.296476	-1.253500	0.110042	-1.087346	-1.163964	0.067712	-0.825961	-1.074428	0.846454	-6.031914	-7.967531	0.000000	0.000000	19.526246	-4.871146	-10.786758	-5.301086	-15.176868	32.530018	88.554307	78.525968	-4.877592	7.248548	5.855288	-17.606835	47.103572	89.128562	90.326233	12.277765	20.571775
2.610169	-4.144993	2.112716	81.784355	0.305469	0.988531	0.229513	-3.269761	-4.267018	-10.247218	8.860236	0.154640	13.889508	17.363658	0.000000	-3.790248	3.840815	-12.355145	7.956025	0.138859	11.128081	-8.396664	0.000000	0.128592	-0.549171	-1.418578	0.238808	-0.730397	-1.507239	0.211263	-1.335254	-1.507239	0.146967	-1.335254	-1.241255	0.119410	-1.119869	-1.152594	0.073477	-0.850666	-1.063933	0.918518	-6.212330	-7.889703	0.000000	0.000000	19.509295	-4.412052	-10.233974	-5.322874	-15.307580	32.773762	88.345842	80.087150	-3.774486	7.073071	5.894008	-17.591607	47.365200	88.972356	89.655051	13.584151	21.445766
2.627119	-4.174169	2.042810	82.187777	0.304969	0.988158	0.229576	-3.308073	-4.261961	-10.625051	8.789414	0.153404	13.932831	17.340465	0.000000	-3.675945	3.838328	-11.877978	7.976813	0.139222	11.114920	-8.506496	0.000000	0.137553	-0.565566	-1.380217	0.255451	-0.752202	-1.466481	0.225987	-1.375116	-1.466481	0.157210	-1.375116	-1.207690	0.127732	-1.153301	-1.121427	0.078598	-0.876061	-1.035163	0.982531	-6.397792	-7.676355	0.000000	0.000000	19.572600	-3.873820	-9.592539	-5.450049	-15.386478	32.810580	88.156922	82.109633	-2.264996	7.068224	5.989795	-17.559041	47.611257	88.762347	88.575806	15.030216	22.372793
2.644068	-4.216634	1.942254	82.627529	0.304320	0.987735	0.229781	-3.285880	-4.273102	-11.048214	8.756596	0.152831	14.012516	17.320231	0.000000	-3.508117	3.851144	-11.289645	8.009796	0.139797	11.077755	-8.717903	0.000000	0.145397	-0.581598	-1.315652	0.270016	-0.773525	-1.397880	0.238872	-1.414096	-1.397880	0.166174	-1.414096	-1.151195	0.135015	-1.185994	-1.068967	0.083080	-0.900895	-0.986739	1.038553	-6.579148	-7.317262	0.000000	0.000000	19.691432	-3.276089	-8.824219	-5.679910	-15.419804	32.694424	88.023522	83.835218	-0.771630	7.343648	6.156951	-17.508859	47.872873	88.504664	87.065280	16.439538	23.322178
2.661017	-4.266896	1.822387	83.095059	0.303530	0.987293	0.230098	-3.216285	-4.296884	-11.507591	8.759487	0.152882	14.129196	17.310574	0.000000	-3.299540	3.875281	-10.620861	8.062331	0.140714	11.019364	-9.022297	0.000000	0.150835	-0.596627	-1.219473	0.280117	-0.793514	-1.295690	0.247808	-1.450639	-1.295690	0.172390	-1.450639	-1.067039	0.140066	-1.216642	-0.990822	0.086187	-0.924175	-0.914605	1.077403	-6.749163	-6.782342	0.000000	0.000000	19.835261	-2.664702	-7.972899	-6.031758	-15.397076	32.376541	87.973334	84.845957	0.617181	8.009231	6.430910	-17.434642	48.225394	88.201747	85.207684	17.621160	24.234304
2.677966	-4.334926	1.683845	83.594235	0.302651	0.986842	0.230499	-3.107323	-4.340161	-11.995515	8.786721	0.153357	14.291607	17.306279	0.000000	-3.046985	3.917951	-9.883866	8.148166	0.142212	10.916204	-9.429211	0.000000	0.154650	-0.612000	-1.096633	0.287200	-0.813959	-1.165172	0.254074	-1.488016	-1.165172	0.176749	-1.488016	-0.959554	0.143608	-1.247989	-0.891014	0.088367	-0.947987	-0.822474	1.104646	-6.923061	-6.099141	0.000000	0.000000	19.977056	-2.066908	-7.021119	-6.514589	-15.286838	31.831379	88.007135	85.247344	1.887634	9.012358	6.750657	-17.329566	48.581594	87.879296	82.999285	18.575386	25.159311
2.694915	-4.424729	1.519798	84.123600	0.301683	0.986385	0.230945	-2.957440	-4.407841	-12.497450	8.833032	0.154165	14.485275	17.300412	0.000000	-2.745164	3.973339	-9.253440	8.278536	0.144488	10.822031	-9.692824	0.000000	0.157970	-0.628097	-0.944716	0.293366	-0.835369	-1.003761	0.259529	-1.527156	-1.003761	0.180544	-1.527156	-0.826627	0.146691	-1.280816	-0.767582	0.090264	-0.972923	-0.708537	1.128365	-7.105162	-5.254228	0.000000	0.000000	20.129593	-1.515779	-6.037729	-7.143372	-15.117420	31.103524	88.158947	84.712734	2.832573	10.336726	7.155448	-17.224713	49.090222	87.563726	80.479803	18.951466	26.013022
2.711864	-4.533662	1.343943	84.689510	0.300640	0.985952	0.231406	-2.789392	-4.497404	-13.021026	8.895084	0.155249	14.712670	17.299055	0.000000	-2.410262	4.040280	-8.690058	8.458533	0.147629	10.711654	-9.873924	0.000000	0.158662	-0.645409	-0.765790	0.294652	-0.858394	-0.813652	0.260666	-1.569248	-0.813652	0.181335	-1.569248	-0.670067	0.147334	-1.316119	-0.622205	0.090660	-0.999739	-0.574343	1.133308	-7.300999	-4.259096	0.000000	0.000000	20.265771	-1.053412	-5.158533	-7.934834	-14.887750	30.182109	88.423623	83.398998	3.476706	11.912196	7.646599	-17.136467	49.801311	87.262920	77.761269	18.669006	26.682082
2.728814	-4.664500	1.154370	85.279396	0.299545	0.985547	0.231842	-2.603993	-4.611949	-13.549424	8.969358	0.156545	14.960228	17.299996	0.000000	-2.051348	4.123922	-8.221535	8.672234	0.151359	10.565059	-9.965308	0.000000	0.157825	-0.664305	-0.565455	0.293096	-0.883526	-0.600795	0.259290	-1.615192	-0.600795	0.180378	-1.615192	-0.494773	0.146556	-1.354652	-0.459432	0.090181	-1.029009	-0.424091	1.127325	-7.514756	-3.144889	0.000000	0.000000	20.379870	-0.709616	-4.448468	-8.873526	-14.599874	29.089616	88.770263	81.448577	3.971402	13.721092	8.179005	-17.084840	50.680324	86.996676	75.049978	17.812310	27.127847
2.745763	-4.806372	0.949984	85.881856	0.298398	0.985172	0.232224	-2.406115	-4.741223	-14.070568	9.045236	0.157869	15.214568	17.313316	0.000000	-1.674480	4.222061	-7.783063	8.907122	0.155459	10.362793	-10.074726	0.000000	0.155967	-0.683484	-0.350998	0.289646	-0.909034	-0.372935	0.256238	-1.661823	-0.372935	0.178255	-1.661823	-0.307123	0.144831	-1.393761	-0.285186	0.089120	-1.058717	-0.263248	1.114056	-7.731710	-1.952145	0.000000	0.000000	20.476066	-0.495423	-3.957684	-9.932669	-14.270654	27.853450	89.169802	79.160362	4.480960	15.668549	8.712892	-17.086996	51.680304	86.779738	72.674333	16.526034	27.275627
2.762712	-4.959271	0.735331	86.497246	0.297221	0.984835	0.232549	-2.204754	-4.884210	-14.577598	9.118420	0.159146	15.477412	17.333634	0.000000	-1.285141	4.330421	-7.438400	9.167023	0.159995	10.143913	-10.104027	0.000000	0.152557	-0.704067	-0.134557	0.283313	-0.936410	-0.142967	0.250636	-1.711869	-0.142967	0.174357	-1.711869	-0.117737	0.141664	-1.435734	-0.109328	0.087171	-1.090600	-0.100918	1.089698	-7.964550	-0.748366	0.000000	0.000000	20.566811	-0.392256	-3.761626	-11.041856	-13.921795	26.592661	89.590130	76.520048	4.963263	17.661644	9.205129	-17.171563	52.719310	86.643417	70.899544	15.019107	27.111806
2.779661	-5.120821	0.519499	87.145069	0.296006	0.984568	0.232807	-2.019784	-5.034961	-15.089446	9.173877	0.160114	15.738145	17.356672	0.000000	-0.899353	4.452061	-7.092125	9.435091	0.164673	9.874136	-10.159636	0.000000	0.147427	-0.726331	0.069960	0.273787	-0.966020	0.074332	0.242208	-1.766001	0.074332	0.168495	-1.766001	0.061215	0.136901	-1.481134	0.056842	0.084240	-1.125087	0.052470	1.053059	-8.216400	0.389096	0.000000	0.000000	20.653395	-0.367373	-3.848500	-12.133956	-13.569516	25.377817	89.958410	73.903484	5.516464	19.350209	9.633777	-17.360210	53.758236	86.579575	69.781882	13.471933	26.567770
2.796610	-5.278137	0.303793	87.797920	0.294748	0.984358	0.232993	-1.845211	-5.185225	-15.574836	9.218941	0.160901	16.007527	17.390362	0.000000	-0.523992	4.578046	-6.761734	9.706544	0.169411	9.587224	-10.256258	0.000000	0.142774	-0.748443	0.263905	0.265146	-0.995429	0.280399	0.234564	-1.819764	0.280399	0.163177	-1.819764	0.230917	0.132580	-1.526225	0.214423	0.081581	-1.159338	0.197929	1.019821	-8.466536	1.467761	0.000000	0.000000	20.701384	-0.436761	-4.221384	-13.179319	-13.219125	24.202933	90.309824	71.258868	6.153111	21.004477	10.051559	-17.638786	54.840946	86.581967	69.348287	12.082198	25.772511
